<?xml version="1.0" encoding="UTF-8"?>
<svg id="Capa_1" xmlns="http://www.w3.org/2000/svg" version="1.1" viewBox="0 0 1318.11 1318.11">
  <!-- Generator: Adobe Illustrator 29.8.1, SVG Export Plug-In . SVG Version: 2.1.1 Build 2)  -->
  <defs>
    <style>
      .st0 {
        fill: #991833;
      }

      .st1 {
        fill: #f2f2f2;
      }
    </style>
  </defs>
  <circle class="st0" cx="659.06" cy="659.06" r="647.32"/>
  <g>
    <path class="st1" d="M628.45,1150.63c-81.59-9.45-159.95-39.3-198.7-116.41-6.48-12.9-24.58-64.11-24.58-76.26v-419.54h507.77v405.13c0,110.67-112.68,208.11-221.14,203.75l-5.73,3.32h-57.62ZM574.43,808.52h79.23v-73.82l-5.4-5.4h-73.82v-176.46h-79.23v176.46h-79.23v79.23h79.23v288.09l79.2,32.4.02-320.49c-4.47,4.75-46.8,35.68-50.38,32.42-2.53-27.65-32.27-41.06-43.25-64.83h111.64l-.05,5.33c-6.11,5.27-14.14,23.03-17.95,27.08ZM779.7,552.84h-115.24l-.03,18.03h14.46s0,5.34,0,5.34l-14.43,1.84v115.24l43.21,7.25c-11.93,17.03-53.95-4.72-41.67,29.05l12.91,5.12-14.6,7.79-.06,110.64c2.34,8.61,39.89.42,43.42,12.98l-43.33,9.67.65,15.06,13.92,5.92-14.6,7.79.19,112.82c2.61,2.5,39.96-.85,43.18,10.8l-39.85,5.19-2.87,19.58,13.9,7.64-14.39.04v75.62l53.51-4.12.46-17.43c-2.38-2.4-40.05.74-43.16-10.82l41.12-6.89,2.11-11.15,7.16,2.53,5.85,11.43,37.38,4.07c-3.7,11.88-38.97,6.75-43.01,10.95l-.17,17.81c59.94-10.84,122.6-42.4,147.62-100.77-6.58-2.04-17.02-.89-14.38-10.83,26.1,7.1,30.4-18,34.92-38.9,3.48-16.08,8.95-64.21,4.24-77.72-2.95-8.48-14.08-2.08-13.95-9.4l12.85-3.35c11.02-32.59-22.35-14.19-38-27.3l39.76-11.22.02-111.06c-14.07-2.28-18.47-9.38-.63-9.37l.6-19.31c-.73-4.36-28.82-4.96-34.39-5.78-4.91-.72-10.87-1.38-5.42-7.06l33.71-4.14,5.39-5.42.75-110.97-11.07-7.32,10.45-2.04.38-17.8h-111.64l-2.05,14.49c5.44,6.95,19.56-1.84,16.46,10.7h-36.02c-3.33-11.35,9.28-5.21,12.81-10.51,2.89-4.34,1.35-9.94,1.6-14.68Z"/>
    <path class="st1" d="M664.47,365.55c8.41,11.21,22.2-14.14,30.51-14.33,32.31,7.75,42.78,36.38,5.49,45.28-16.55,3.95-16.77-13.01-26.99-13.05-18.85-.07-.92,28.28,9.29,34.03,21.97,12.38,63.72,4.53,72.59-20.56,7.01-19.85-5.93-14.08-11.9-23.13-7.25-11,10.8-42.54,23.16-40.13,19.95,19.78,30.57,34.23,2.92,52.16-1.35,42.57,82.49,56.43,67.73,4.97-24.81,25.27-52.98-32.05-22.55-38.84,25.67-5.73,22.86,15.47,31.54,13.6,14.66-17.22-14.83-21.72,10.88-39.59,14.18-9.85,24.84-7.45,41.38-7.19l-67.18,125.44-348.17.74c-17.72-43.08-37.1-84.65-67.17-120.75,10.68-15.48,55.16,1.64,57.24,14.86.23,1.44-14.85,26.74-1.44,26.43,3.94-.09,7.94-13.53,11.55-14.43,11.37-2.85,35.27,4.05,32.97,19.04-1.4,9.11-11.86,28.17-22.97,27.7-5.37-.23-13.11-12.01-15.94-1.39-8.76,32.78,48.71,36.39,64.15,6.51,13.63-26.37-3.75-21.04-8.69-30.08-6.36-11.64,8.34-32.67,18.68-39.4,6.81-1.16,21.99,20.49,22.93,27.01,2.63,18.35-13.44,17.2-14.6,22.03-11.11,46.25,97.51,60.75,90.18,1.11-14.71-2.79-16.43,15.26-30.29,14.47-7.54-.43-30.67-15.75-30.04-23.56,7.74-10.57,26.69-28.01,39.71-19.92,1.11.69,17.45,23.98,20.62,9.12,2.49-11.67-14.11-15.6-14.32-25.04-.08-3.55,13.49-29.21,14.94-30.06,14.14-8.24,34.16,23.78,29.24,34.38-2.71,5.85-21.78,14.09-15.43,22.55Z"/>
    <path class="st1" d="M664.44,167.48v14.47s18.04,1.79,18.04,1.79c1.77,13.06-8.1,12.74-17.87,12.73l.38,24.56c11.13-1.54,17.24,12.79,23.55,14.35,6.94,1.72,43.61-7.71,60.49-6.57,41.87,2.83,76.35,24.58,102.77,55.65,3.46,4.07,16.92,17.01,10.65,21.6l-13.93,5.19c-25.8-49.33-79.53-70.15-133.64-64.5-1.38,9.59,12.67,11.83,19.7,18.09,16.8,14.96,34.5,33.49,34.28,57.5-20.26,3.74-23.43-24.68-37.28-38.31-5.93-5.84-28.32-20.82-36.03-19.59-13.89,34.67-59.44,39.29-71.14.73-9.97-7.16-39.82,18.03-46.38,26.59-11.88,15.51-8.75,36.6-32.41,30.57,5.1-28.62,23.07-48.01,45.61-64.32,2.75-1.99,24.78-9,6.65-11.29-37.84-4.77-74.03,6.14-102.74,30.57-15.24,12.97-23.9,38.36-43.16,30.63,27.24-65.64,107.65-92.22,173.94-72.59,18.22-14.72,29.33-10.77,24.15-39.04h-14.46s0-14.37,0-14.37l14.47.02-.02-14.47h14.38Z"/>
    <polygon class="st1" points="819.31 488.01 815.13 501.86 810.43 502.68 500.4 499.02 498.8 488.01 819.31 488.01"/>
    <path class="st1" d="M630.25,477.21c-1.91-.32-5.48-3.85-8.63-3.98-11.53-29.68,59.3-24.2,69.5-17.29,11.7,7.93.68,21.28-3.25,21.28-16.56,0-42.78,2.48-57.62,0Z"/>
    <path class="st1" d="M764.39,456.19c8.91-1.57,16.49,1.65,22.44,8.42-10.47,11.83-25.46,11.77-35.87,0,3.36-3.82,8.43-7.54,13.43-8.42Z"/>
    <path class="st1" d="M728.46,456.42c7.49,7.5-.46,25.76-13.6,19.09-18.32-9.3,2.5-30.21,13.6-19.09Z"/>
    <path class="st1" d="M809.32,456.42c7.5-7.49,25.76.46,19.09,13.6-9.3,18.32-30.21-2.5-19.09-13.6Z"/>
    <path class="st1" d="M567.2,462.85l-19.76,13.18-16.16-11.42c12.05-14.13,21.86-6.71,35.91-1.75Z"/>
    <path class="st1" d="M606.54,473.3c-6.07,8.47-27.99-1.35-19.71-14.2,10.27-15.95,26.09,5.29,19.71,14.2Z"/>
    <path class="st1" d="M493.77,455.92c20.23-6.3,18.64,19.09,6.37,21.05-8.82,1.41-18.5-17.27-6.37-21.05Z"/>
    <path class="st1" d="M787.66,692.51c5.46,4.8,42.36,1.79,42.38,9.77l-42.92,9.2c-.92,1-.99,15.18.29,17.28,2.35,3.87,17.71.2,13.91,11.31h-36.04c-3.8-11.1,11.56-7.44,13.91-11.3,2.14-3.51-.03-12.57.45-17.43l-43.09-9.06,43.12-9.02.06-14.39c7.71.75,5.25,11.28,7.93,13.64Z"/>
    <path class="st1" d="M787.51,854.71c4,3.27,42.49,1.73,42.53,9.63l-42.92,9.2c-2.13,15.07-1.68,20.06,14.17,21.45-7.29,13.63-23.23,8.27-35.99,7.14-1.62-9.5,7.68-9.86,13.82-11.31l.34-17.27-42.91-9.21,43.12-9.02.06-14.39c7.76.65,5.4,11.84,7.77,13.78Z"/>
    <path class="st1" d="M787.41,1016.85c4.14,3.33,38.3-1.4,42.7,11.3l-42.78,7.65.14,17.09,13.83,7.67c-16.82,9.19-22.61,4.23-39.58,0l17.56-7.57v-17.2s-42.75-9.46-42.75-9.46c-1.11-7.64,18.55-6.93,24.46-7.89,6.29-1.02,12.41-1.49,18.75-1.03v-14.43c7.79.61,5.55,12.14,7.69,13.86Z"/>
    <path class="st1" d="M725.64,761.7l3.35,12.84c11.37,2.58,23.4,1.59,34.64,5.08,5.12,1.59,6.34-2.14,5.28,7.28l-39.87,5.18-3.39,20.05c7.28.8,16.86-4.22,14.46,7.19-14.82-5.11-13.03,8.69-19.81,7.26-2.99-9.48-6.72-7.9-16.25-7.26-2.4-11.41,7.18-6.39,14.46-7.19l-1.61-18.23c-3.55-5.13-26.78-2.89-36.63-6.58-4.97-1.86-6.13,1.18-5.02-7.58l37.36-4.09,5.88-11.39,7.15-2.56Z"/>
    <path class="st1" d="M725.66,599.63v14.46c1.58,1.63,39.44-2.69,43.22,10.73l-42.68,7.77.03,16.98,13.84,7.67c-16.75,6.42-19.22,6.45-36,0l13.84-7.67.03-16.98-38.22-6.78-4.47-8.13,43.25-3.58c.77-7.25-4.24-16.88,7.16-14.46Z"/>
    <path class="st1" d="M887.72,941.82c1.11,9.38-.15,5.67-5.25,7.25-10.97,3.39-22.96,3.93-34.38,3.48v21.65c7.27.78,16.86-4.24,14.45,7.16l-19.86,7.22c-2.98-10.93-9.7-7.13-19.77-7.23,1.83-8.7,15.14-5.51,17.7-12.94,7.56-21.95-30.8-15.46-42.92-19.46-1.09-8.7-.02-5.73,5.01-7.58,16.03-5.91,38.47,3.4,38.25-21.18l13.13,17.42,33.63,4.22Z"/>
    <path class="st1" d="M725.66,923.76l2.11,11.15c11.53,4.55,24.53,2.2,36.11,6.44,5.06,1.85,6.1-1.08,5.01,7.59l-43.24,3.62,1.62,18.28,12.83,10.51c-7.25-4.02-20.53,7.78-21.46,7.09-.79-.58,1.01-11.66-14.59-7.08-3.4-11.31,9.07-5.11,12.83-10.52l1.62-18.28c-12.5.39-25.71-.74-37.84-3.67-5.43-1.31-6.34,2.55-5.4-7.1l38.92-6.03,4.43-9.32,7.05-2.69Z"/>
    <path class="st1" d="M848.62,613.52c1.32,1.07,27.17,2.62,33.72,4.21,5.41,1.31,6.35-2.54,5.37,7.08l-36.24,5.21-3.6,17.95,14.64,9.27c-17.15,6.66-22.63,3.64-39.61,0,.83-9.14,16.37-5.85,17.8-7.35l-.32-17.3-42.68-7.78c-.97-9.6-.06-5.77,5.37-7.08,11.09-2.68,23.37-2.49,34.5-5.21l3.37-12.87c7.73.58,5.61,12.19,7.67,13.86Z"/>
    <path class="st1" d="M848.6,775.59c1.36,1.18,25.05.32,34.13,3.73,4.95,1.86,6.14-1.18,5,7.56l-39.64,3.62.55,21.14,13.87,7.66-19.84,7.23c-2.97-10.93-9.71-7.13-19.78-7.23,1.83-8.7,15.14-5.51,17.7-12.94,7.78-22.6-29.65-13.91-42.91-19.47-1.08-9.41.16-5.68,5.26-7.26,10.92-3.39,22.6-3.28,33.85-3.98l4.15-13.91c7.7.39,5.53,12.05,7.64,13.88Z"/>
    <path class="st1" d="M596.03,761.7h-115.24c-2.39-23.94,15.95-32.77,37.62-28.65,6.38,1.21,10.64,7.43,18.2,7.44,7.68.01,13.66-7.4,25.1-7.99,21.37-1.09,30.46,9.25,34.32,29.19Z"/>
    <path class="st1" d="M534.78,714.89c-25.6-18,3.06-38.2,1.82-61.2,26.72,20.86,1,36.84-1.82,61.2Z"/>
    <path class="st1" d="M534.78,736.5c-25.69-15.51-46.99-19.38-28.73-53.99l24.68,38.27,4.05,15.72Z"/>
    <path class="st1" d="M545.57,725.66c-6.56.83-3.85-12.52-2.82-15.44.91-2.56,19.59-25.13,20.83-24.14,11.81,23.59-11.84,21.72-18.01,39.58Z"/>
  </g>
</svg>